<?xml version="1.0" standalone="no"?>
<!DOCTYPE svg PUBLIC "-//W3C//DTD SVG 20010904//EN"
 "http://www.w3.org/TR/2001/REC-SVG-20010904/DTD/svg10.dtd">
<svg version="1.0" xmlns="http://www.w3.org/2000/svg"
 width="400.000000pt" height="400.000000pt" viewBox="0 0 400.000000 400.000000"
 preserveAspectRatio="xMidYMid meet">
<metadata>
Created by potrace 1.14, written by Peter Selinger 2001-2017
</metadata>
<g transform="translate(0.000000,400.000000) scale(0.100000,-0.100000)"
fill="#000000" stroke="none">
<path d="M1498 3052 c-54 -25 -98 -49 -98 -52 0 -3 46 -27 103 -52 l103 -45
39 19 c22 10 69 31 105 47 l65 29 -108 51 c-59 28 -109 51 -110 50 -1 0 -46
-21 -99 -47z"/>
<path d="M1370 2228 l0 -753 133 -62 c210 -99 530 -244 550 -250 16 -5 18 2
15 93 l-3 98 -212 97 c-117 53 -224 104 -238 113 l-25 16 0 654 0 654 -105 46
c-58 25 -108 46 -110 46 -3 0 -5 -339 -5 -752z"/>
<path d="M1708 2927 l-98 -41 0 -643 c0 -354 4 -643 8 -643 5 0 53 19 108 43
l99 43 3 642 c2 511 0 642 -10 641 -7 0 -57 -19 -110 -42z"/>
<path d="M1735 1627 c-109 -50 -104 -46 -80 -60 24 -14 369 -175 405 -189 21
-8 42 -2 128 39 l103 49 -118 56 c-206 98 -320 148 -334 147 -8 0 -54 -19
-104 -42z"/>
<path d="M2190 1396 l-95 -43 -3 -96 c-2 -63 1 -97 8 -97 6 0 55 23 110 50
l100 50 0 90 c0 65 -3 90 -12 90 -7 0 -56 -20 -108 -44z"/>
</g>
</svg>
